<?xml version="1.0" encoding="UTF-8" standalone="no"?>
<!DOCTYPE svg PUBLIC "-//W3C//DTD SVG 1.1//EN" "http://www.w3.org/Graphics/SVG/1.1/DTD/svg11.dtd">
<svg width="100%" height="100%" viewBox="0 0 4320 4320" version="1.1" xmlns="http://www.w3.org/2000/svg" xmlns:xlink="http://www.w3.org/1999/xlink" xml:space="preserve" xmlns:serif="http://www.serif.com/" style="fill-rule:evenodd;clip-rule:evenodd;stroke-linejoin:round;stroke-miterlimit:2;">
    <g id="Pizza" transform="matrix(1,0,0,1,-302.286,158.432)">
        <g id="Base">
            <g transform="matrix(-0.632789,-0.562632,0.821894,-0.92438,1675.72,5318.61)">
                <path d="M1988.31,345.121L3490.73,3349.96L485.889,3349.96L1988.31,345.121Z" style="fill:rgb(255,209,0);"/>
            </g>
            <g transform="matrix(2.68679,2.46042,-0.168339,0.183827,-3405.05,-5178.29)">
                <path d="M2863,450.728C2863,349.134 2857.35,266.653 2850.4,266.653L2139.29,266.653C2132.34,266.653 2126.69,349.134 2126.69,450.728L2126.69,818.88C2126.69,920.474 2132.34,1002.96 2139.29,1002.96L2850.4,1002.96C2857.35,1002.96 2863,920.474 2863,818.88L2863,450.728Z" style="fill:rgb(255,209,139);"/>
            </g>
        </g>
        <g id="Pepperoni">
            <g transform="matrix(0.830544,0,0,0.830544,1150.02,708.225)">
                <circle cx="2499.6" cy="1386.62" r="303.688" style="fill:rgb(255,54,0);"/>
            </g>
            <g transform="matrix(0.761973,0,0,0.761973,542.769,173.171)">
                <circle cx="2499.6" cy="1386.62" r="303.688" style="fill:rgb(255,54,0);"/>
            </g>
            <g transform="matrix(0.761973,0,0,0.761973,-15.4614,1503.25)">
                <circle cx="2499.6" cy="1386.62" r="303.688" style="fill:rgb(255,54,0);"/>
            </g>
            <g transform="matrix(0.457328,-0.60947,0.60947,0.457328,542.7,3017.19)">
                <circle cx="2499.6" cy="1386.62" r="303.688" style="fill:rgb(255,54,0);"/>
            </g>
            <g transform="matrix(0.618091,0,0,0.618091,-147.389,2247.84)">
                <circle cx="2499.6" cy="1386.62" r="303.688" style="fill:rgb(255,54,0);"/>
            </g>
        </g>
        <g id="Green-Peppers" serif:id="Green Peppers" transform="matrix(1,0,0,1,302.286,-158.432)">
            <g transform="matrix(0.800461,-0.599385,0.599385,0.800461,-346.177,1769.97)">
                <path d="M2064.96,1306.71C2220.61,1306.71 2346.98,1401.77 2346.98,1518.86C2346.98,1635.95 2220.61,1731.02 2064.96,1731.02C1909.31,1731.02 2233.12,1649.15 2233.12,1532.06C2233.12,1414.96 1909.31,1306.71 2064.96,1306.71Z" style="fill:rgb(0,90,29);"/>
            </g>
            <g transform="matrix(-0.228361,-0.973577,0.973577,-0.228361,1044.39,3510.94)">
                <path d="M2064.96,1306.71C2220.61,1306.71 2346.98,1401.77 2346.98,1518.86C2346.98,1635.95 2220.61,1731.02 2064.96,1731.02C1909.31,1731.02 2233.12,1649.15 2233.12,1532.06C2233.12,1414.96 1909.31,1306.71 2064.96,1306.71Z" style="fill:rgb(0,90,29);"/>
            </g>
            <g transform="matrix(0.933397,-0.358844,0.358844,0.933397,514.966,1345.19)">
                <path d="M2064.96,1306.71C2220.61,1306.71 2346.98,1401.77 2346.98,1518.86C2346.98,1635.95 2220.61,1731.02 2064.96,1731.02C1909.31,1731.02 2233.12,1649.15 2233.12,1532.06C2233.12,1414.96 1909.31,1306.71 2064.96,1306.71Z" style="fill:rgb(0,90,29);"/>
            </g>
            <g transform="matrix(0.803163,0.595759,-0.595759,0.803163,1563.01,-241.978)">
                <path d="M2064.96,1306.71C2220.61,1306.71 2346.98,1401.77 2346.98,1518.86C2346.98,1635.95 2220.61,1731.02 2064.96,1731.02C1909.31,1731.02 2233.12,1649.15 2233.12,1532.06C2233.12,1414.96 1909.31,1306.71 2064.96,1306.71Z" style="fill:rgb(0,90,29);"/>
            </g>
            <g transform="matrix(-0.728628,0.684909,-0.684909,-0.728628,4297.04,1681.02)">
                <path d="M2064.96,1306.71C2220.61,1306.71 2346.98,1401.77 2346.98,1518.86C2346.98,1635.95 2220.61,1731.02 2064.96,1731.02C1909.31,1731.02 2233.12,1649.15 2233.12,1532.06C2233.12,1414.96 1909.31,1306.71 2064.96,1306.71Z" style="fill:rgb(0,90,29);"/>
            </g>
            <g transform="matrix(0.771749,-0.635927,0.635927,0.771749,-857.704,2979.58)">
                <path d="M2064.96,1306.71C2220.61,1306.71 2346.98,1401.77 2346.98,1518.86C2346.98,1635.95 2220.61,1731.02 2064.96,1731.02C1909.31,1731.02 2233.12,1649.15 2233.12,1532.06C2233.12,1414.96 1909.31,1306.71 2064.96,1306.71Z" style="fill:rgb(0,90,29);"/>
            </g>
            <g transform="matrix(0.771749,-0.635927,0.635927,0.771749,-1413.2,3189)">
                <path d="M2064.96,1306.71C2220.61,1306.71 2346.98,1401.77 2346.98,1518.86C2346.98,1635.95 2220.61,1731.02 2064.96,1731.02C1909.31,1731.02 2233.12,1649.15 2233.12,1532.06C2233.12,1414.96 1909.31,1306.71 2064.96,1306.71Z" style="fill:rgb(0,90,29);"/>
            </g>
        </g>
        <g id="Mushrooms" transform="matrix(1,0,0,1,277.942,-143.106)">
            <g>
                <g transform="matrix(6.12323e-17,1,-1,6.12323e-17,3338.48,-579.2)">
                    <rect x="1848.5" y="1315.45" width="220.675" height="128.388" style="fill:rgb(227,227,227);"/>
                </g>
                <g transform="matrix(1,0,0,1,13.6107,165.32)">
                    <path d="M1952.97,991.614C2045.33,991.614 2120.32,1066.6 2120.32,1158.96C2120.32,1251.32 2048.93,1231.69 1956.57,1231.69C1864.21,1231.69 1785.62,1251.32 1785.62,1158.96C1785.62,1066.6 1860.61,991.614 1952.97,991.614Z" style="fill:rgb(227,227,227);"/>
                </g>
            </g>
            <g transform="matrix(0.90902,0.416753,-0.416753,0.90902,1329.04,-443.611)">
                <g transform="matrix(6.12323e-17,1,-1,6.12323e-17,3338.48,-579.2)">
                    <rect x="1848.5" y="1315.45" width="220.675" height="128.388" style="fill:rgb(227,227,227);"/>
                </g>
                <g transform="matrix(1,0,0,1,13.6107,165.32)">
                    <path d="M1952.97,991.614C2045.33,991.614 2120.32,1066.6 2120.32,1158.96C2120.32,1251.32 2048.93,1231.69 1956.57,1231.69C1864.21,1231.69 1785.62,1251.32 1785.62,1158.96C1785.62,1066.6 1860.61,991.614 1952.97,991.614Z" style="fill:rgb(227,227,227);"/>
                </g>
            </g>
            <g transform="matrix(0.723547,0.690275,-0.690275,0.723547,2483.27,-244.433)">
                <g transform="matrix(6.12323e-17,1,-1,6.12323e-17,3338.48,-579.2)">
                    <rect x="1848.5" y="1315.45" width="220.675" height="128.388" style="fill:rgb(227,227,227);"/>
                </g>
                <g transform="matrix(1,0,0,1,13.6107,165.32)">
                    <path d="M1952.97,991.614C2045.33,991.614 2120.32,1066.6 2120.32,1158.96C2120.32,1251.32 2048.93,1231.69 1956.57,1231.69C1864.21,1231.69 1785.62,1251.32 1785.62,1158.96C1785.62,1066.6 1860.61,991.614 1952.97,991.614Z" style="fill:rgb(227,227,227);"/>
                </g>
            </g>
            <g transform="matrix(0.962057,0.272848,-0.272848,0.962057,450.52,139.397)">
                <g transform="matrix(6.12323e-17,1,-1,6.12323e-17,3338.48,-579.2)">
                    <rect x="1848.5" y="1315.45" width="220.675" height="128.388" style="fill:rgb(227,227,227);"/>
                </g>
                <g transform="matrix(1,0,0,1,13.6107,165.32)">
                    <path d="M1952.97,991.614C2045.33,991.614 2120.32,1066.6 2120.32,1158.96C2120.32,1251.32 2048.93,1231.69 1956.57,1231.69C1864.21,1231.69 1785.62,1251.32 1785.62,1158.96C1785.62,1066.6 1860.61,991.614 1952.97,991.614Z" style="fill:rgb(227,227,227);"/>
                </g>
            </g>
            <g transform="matrix(0.876582,0.481252,-0.481252,0.876582,1219.92,374.154)">
                <g transform="matrix(6.12323e-17,1,-1,6.12323e-17,3338.48,-579.2)">
                    <rect x="1848.5" y="1315.45" width="220.675" height="128.388" style="fill:rgb(227,227,227);"/>
                </g>
                <g transform="matrix(1,0,0,1,13.6107,165.32)">
                    <path d="M1952.97,991.614C2045.33,991.614 2120.32,1066.6 2120.32,1158.96C2120.32,1251.32 2048.93,1231.69 1956.57,1231.69C1864.21,1231.69 1785.62,1251.32 1785.62,1158.96C1785.62,1066.6 1860.61,991.614 1952.97,991.614Z" style="fill:rgb(227,227,227);"/>
                </g>
            </g>
            <g transform="matrix(0.584917,-0.811093,0.811093,0.584917,-713.165,3202.26)">
                <g transform="matrix(6.12323e-17,1,-1,6.12323e-17,3338.48,-579.2)">
                    <rect x="1848.5" y="1315.45" width="220.675" height="128.388" style="fill:rgb(227,227,227);"/>
                </g>
                <g transform="matrix(1,0,0,1,13.6107,165.32)">
                    <path d="M1952.97,991.614C2045.33,991.614 2120.32,1066.6 2120.32,1158.96C2120.32,1251.32 2048.93,1231.69 1956.57,1231.69C1864.21,1231.69 1785.62,1251.32 1785.62,1158.96C1785.62,1066.6 1860.61,991.614 1952.97,991.614Z" style="fill:rgb(227,227,227);"/>
                </g>
            </g>
            <g transform="matrix(0.736687,0.676234,-0.676234,0.736687,1093.19,620.91)">
                <g transform="matrix(6.12323e-17,1,-1,6.12323e-17,3338.48,-579.2)">
                    <rect x="1848.5" y="1315.45" width="220.675" height="128.388" style="fill:rgb(227,227,227);"/>
                </g>
                <g transform="matrix(1,0,0,1,13.6107,165.32)">
                    <path d="M1952.97,991.614C2045.33,991.614 2120.32,1066.6 2120.32,1158.96C2120.32,1251.32 2048.93,1231.69 1956.57,1231.69C1864.21,1231.69 1785.62,1251.32 1785.62,1158.96C1785.62,1066.6 1860.61,991.614 1952.97,991.614Z" style="fill:rgb(227,227,227);"/>
                </g>
            </g>
        </g>
    </g>
</svg>
