<?xml version="1.0" encoding="UTF-8" standalone="no"?>
<!DOCTYPE svg PUBLIC "-//W3C//DTD SVG 1.1//EN" "http://www.w3.org/Graphics/SVG/1.1/DTD/svg11.dtd">
<svg width="100%" height="100%" viewBox="0 0 4320 4320" version="1.1" xmlns="http://www.w3.org/2000/svg" xmlns:xlink="http://www.w3.org/1999/xlink" xml:space="preserve" xmlns:serif="http://www.serif.com/" style="fill-rule:evenodd;clip-rule:evenodd;stroke-linejoin:round;stroke-miterlimit:2;">
    <g id="Pizza" transform="matrix(1,0,0,1,-302.286,158.432)">
        <g id="Base">
            <g transform="matrix(-0.632789,-0.562632,0.821894,-0.92438,1675.72,5318.61)">
                <path d="M1988.31,345.121L3490.73,3349.96L485.889,3349.96L1988.31,345.121Z" style="fill:rgb(255,209,0);"/>
            </g>
            <g transform="matrix(2.68679,2.46042,-0.168339,0.183827,-3405.05,-5178.29)">
                <path d="M2863,450.728C2863,349.134 2857.35,266.653 2850.4,266.653L2139.29,266.653C2132.34,266.653 2126.69,349.134 2126.69,450.728L2126.69,818.88C2126.69,920.474 2132.34,1002.96 2139.29,1002.96L2850.4,1002.96C2857.35,1002.96 2863,920.474 2863,818.88L2863,450.728Z" style="fill:rgb(255,209,139);"/>
            </g>
        </g>
    </g>
    <g transform="matrix(0.800461,-0.599385,0.599385,0.800461,-346.177,1769.97)">
        <path d="M2064.96,1306.71C2220.61,1306.71 2346.98,1401.77 2346.98,1518.86C2346.98,1635.95 2220.61,1731.02 2064.96,1731.02C1909.31,1731.02 2233.12,1649.15 2233.12,1532.06C2233.12,1414.96 1909.31,1306.71 2064.96,1306.71Z" style="fill:rgb(0,90,29);"/>
    </g>
    <g transform="matrix(-0.228361,-0.973577,0.973577,-0.228361,1044.39,3510.94)">
        <path d="M2064.96,1306.71C2220.61,1306.71 2346.98,1401.77 2346.98,1518.86C2346.98,1635.95 2220.61,1731.02 2064.96,1731.02C1909.31,1731.02 2233.12,1649.15 2233.12,1532.06C2233.12,1414.96 1909.31,1306.71 2064.96,1306.71Z" style="fill:rgb(0,90,29);"/>
    </g>
    <g transform="matrix(0.933397,-0.358844,0.358844,0.933397,514.966,1345.19)">
        <path d="M2064.96,1306.71C2220.61,1306.71 2346.98,1401.77 2346.98,1518.86C2346.98,1635.95 2220.61,1731.02 2064.96,1731.02C1909.31,1731.02 2233.12,1649.15 2233.12,1532.06C2233.12,1414.96 1909.31,1306.71 2064.96,1306.71Z" style="fill:rgb(0,90,29);"/>
    </g>
    <g transform="matrix(0.803163,0.595759,-0.595759,0.803163,1563.01,-241.978)">
        <path d="M2064.96,1306.71C2220.61,1306.71 2346.98,1401.77 2346.98,1518.86C2346.98,1635.95 2220.61,1731.02 2064.96,1731.02C1909.31,1731.02 2233.12,1649.15 2233.12,1532.06C2233.12,1414.96 1909.31,1306.71 2064.96,1306.71Z" style="fill:rgb(0,90,29);"/>
    </g>
    <g transform="matrix(-0.728628,0.684909,-0.684909,-0.728628,4297.04,1681.02)">
        <path d="M2064.96,1306.71C2220.61,1306.71 2346.98,1401.77 2346.98,1518.86C2346.98,1635.95 2220.61,1731.02 2064.96,1731.02C1909.31,1731.02 2233.12,1649.15 2233.12,1532.06C2233.12,1414.96 1909.31,1306.71 2064.96,1306.71Z" style="fill:rgb(0,90,29);"/>
    </g>
    <g transform="matrix(0.771749,-0.635927,0.635927,0.771749,-857.704,2979.58)">
        <path d="M2064.96,1306.71C2220.61,1306.71 2346.98,1401.77 2346.98,1518.86C2346.98,1635.95 2220.61,1731.02 2064.96,1731.02C1909.31,1731.02 2233.12,1649.15 2233.12,1532.06C2233.12,1414.96 1909.31,1306.71 2064.96,1306.71Z" style="fill:rgb(0,90,29);"/>
    </g>
    <g transform="matrix(0.771749,-0.635927,0.635927,0.771749,-1413.2,3189)">
        <path d="M2064.96,1306.71C2220.61,1306.71 2346.98,1401.77 2346.98,1518.86C2346.98,1635.95 2220.61,1731.02 2064.96,1731.02C1909.31,1731.02 2233.12,1649.15 2233.12,1532.06C2233.12,1414.96 1909.31,1306.71 2064.96,1306.71Z" style="fill:rgb(0,90,29);"/>
    </g>
</svg>
