<?xml version="1.0" encoding="UTF-8" standalone="no"?>
<!DOCTYPE svg PUBLIC "-//W3C//DTD SVG 1.1//EN" "http://www.w3.org/Graphics/SVG/1.1/DTD/svg11.dtd">
<svg width="100%" height="100%" viewBox="0 0 4320 4320" version="1.1" xmlns="http://www.w3.org/2000/svg" xmlns:xlink="http://www.w3.org/1999/xlink" xml:space="preserve" xmlns:serif="http://www.serif.com/" style="fill-rule:evenodd;clip-rule:evenodd;stroke-linejoin:round;stroke-miterlimit:2;">
    <g id="Pizza" transform="matrix(1,0,0,1,-302.286,158.432)">
        <g id="Base">
            <g transform="matrix(-0.632789,-0.562632,0.821894,-0.92438,1675.72,5318.61)">
                <path d="M1988.31,345.121L3490.73,3349.96L485.889,3349.96L1988.31,345.121Z" style="fill:rgb(255,209,0);"/>
            </g>
            <g transform="matrix(2.68679,2.46042,-0.168339,0.183827,-3405.05,-5178.29)">
                <path d="M2863,450.728C2863,349.134 2857.35,266.653 2850.4,266.653L2139.29,266.653C2132.34,266.653 2126.69,349.134 2126.69,450.728L2126.69,818.88C2126.69,920.474 2132.34,1002.96 2139.29,1002.96L2850.4,1002.96C2857.35,1002.96 2863,920.474 2863,818.88L2863,450.728Z" style="fill:rgb(255,209,139);"/>
            </g>
        </g>
    </g>
    <g transform="matrix(0.617826,0,0,0.617826,732.019,266.396)">
        <g>
            <circle cx="1960.11" cy="1320.75" r="156.37" style="fill:rgb(21,100,47);"/>
            <g transform="matrix(0.649093,0,0,0.649093,672.09,447.925)">
                <circle cx="1960.11" cy="1320.75" r="156.37" style="fill:rgb(229,82,0);"/>
            </g>
        </g>
        <g transform="matrix(1,0,0,1,599.284,272.794)">
            <circle cx="1960.11" cy="1320.75" r="156.37" style="fill:rgb(21,100,47);"/>
            <g transform="matrix(0.649093,0,0,0.649093,672.09,447.925)">
                <circle cx="1960.11" cy="1320.75" r="156.37" style="fill:rgb(229,82,0);"/>
            </g>
        </g>
        <g transform="matrix(1,0,0,1,1011.92,565.921)">
            <circle cx="1960.11" cy="1320.75" r="156.37" style="fill:rgb(21,100,47);"/>
            <g transform="matrix(0.649093,0,0,0.649093,672.09,447.925)">
                <circle cx="1960.11" cy="1320.75" r="156.37" style="fill:rgb(229,82,0);"/>
            </g>
        </g>
        <g transform="matrix(0.42011,0.907473,-0.907473,0.42011,3167.99,6.82851)">
            <circle cx="1960.11" cy="1320.75" r="156.37" style="fill:rgb(21,100,47);"/>
            <g transform="matrix(0.649093,0,0,0.649093,672.09,447.925)">
                <circle cx="1960.11" cy="1320.75" r="156.37" style="fill:rgb(229,82,0);"/>
            </g>
        </g>
        <g transform="matrix(0.42011,0.907473,-0.907473,0.42011,2712.72,-162.945)">
            <circle cx="1960.11" cy="1320.75" r="156.37" style="fill:rgb(21,100,47);"/>
            <g transform="matrix(0.649093,0,0,0.649093,672.09,447.925)">
                <circle cx="1960.11" cy="1320.75" r="156.37" style="fill:rgb(229,82,0);"/>
            </g>
        </g>
        <g transform="matrix(0.42011,0.907473,-0.907473,0.42011,2358.29,-524.679)">
            <circle cx="1960.11" cy="1320.75" r="156.37" style="fill:rgb(21,100,47);"/>
            <g transform="matrix(0.649093,0,0,0.649093,672.09,447.925)">
                <circle cx="1960.11" cy="1320.75" r="156.37" style="fill:rgb(229,82,0);"/>
            </g>
        </g>
        <g transform="matrix(0.42011,0.907473,-0.907473,0.42011,1897.71,-182.669)">
            <circle cx="1960.11" cy="1320.75" r="156.37" style="fill:rgb(21,100,47);"/>
            <g transform="matrix(0.649093,0,0,0.649093,672.09,447.925)">
                <circle cx="1960.11" cy="1320.75" r="156.37" style="fill:rgb(229,82,0);"/>
            </g>
        </g>
        <g transform="matrix(0.42011,0.907473,-0.907473,0.42011,2309.66,99.0877)">
            <circle cx="1960.11" cy="1320.75" r="156.37" style="fill:rgb(21,100,47);"/>
            <g transform="matrix(0.649093,0,0,0.649093,672.09,447.925)">
                <circle cx="1960.11" cy="1320.75" r="156.37" style="fill:rgb(229,82,0);"/>
            </g>
        </g>
        <g transform="matrix(0.42011,0.907473,-0.907473,0.42011,2139.28,567.189)">
            <circle cx="1960.11" cy="1320.75" r="156.37" style="fill:rgb(21,100,47);"/>
            <g transform="matrix(0.649093,0,0,0.649093,672.09,447.925)">
                <circle cx="1960.11" cy="1320.75" r="156.37" style="fill:rgb(229,82,0);"/>
            </g>
        </g>
        <g transform="matrix(0.42011,0.907473,-0.907473,0.42011,1661.49,370.803)">
            <circle cx="1960.11" cy="1320.75" r="156.37" style="fill:rgb(21,100,47);"/>
            <g transform="matrix(0.649093,0,0,0.649093,672.09,447.925)">
                <circle cx="1960.11" cy="1320.75" r="156.37" style="fill:rgb(229,82,0);"/>
            </g>
        </g>
        <g transform="matrix(0.42011,0.907473,-0.907473,0.42011,1508.21,914.206)">
            <circle cx="1960.11" cy="1320.75" r="156.37" style="fill:rgb(21,100,47);"/>
            <g transform="matrix(0.649093,0,0,0.649093,672.09,447.925)">
                <circle cx="1960.11" cy="1320.75" r="156.37" style="fill:rgb(229,82,0);"/>
            </g>
        </g>
        <g transform="matrix(0.946396,0.323009,-0.323009,0.946396,883.649,1192.47)">
            <circle cx="1960.11" cy="1320.75" r="156.37" style="fill:rgb(21,100,47);"/>
            <g transform="matrix(0.649093,0,0,0.649093,672.09,447.925)">
                <circle cx="1960.11" cy="1320.75" r="156.37" style="fill:rgb(229,82,0);"/>
            </g>
        </g>
        <g transform="matrix(0.946396,0.323009,-0.323009,0.946396,1362.69,1644.21)">
            <circle cx="1960.11" cy="1320.75" r="156.37" style="fill:rgb(21,100,47);"/>
            <g transform="matrix(0.649093,0,0,0.649093,672.09,447.925)">
                <circle cx="1960.11" cy="1320.75" r="156.37" style="fill:rgb(229,82,0);"/>
            </g>
        </g>
        <g transform="matrix(0.97582,-0.218578,0.218578,0.97582,1540.34,1987)">
            <circle cx="1960.11" cy="1320.75" r="156.37" style="fill:rgb(21,100,47);"/>
            <g transform="matrix(0.649093,0,0,0.649093,672.09,447.925)">
                <circle cx="1960.11" cy="1320.75" r="156.37" style="fill:rgb(229,82,0);"/>
            </g>
        </g>
        <g transform="matrix(0.608305,0.793703,-0.793703,0.608305,3522.06,970.158)">
            <circle cx="1960.11" cy="1320.75" r="156.37" style="fill:rgb(21,100,47);"/>
            <g transform="matrix(0.649093,0,0,0.649093,672.09,447.925)">
                <circle cx="1960.11" cy="1320.75" r="156.37" style="fill:rgb(229,82,0);"/>
            </g>
        </g>
        <g transform="matrix(0.608305,0.793703,-0.793703,0.608305,3040.7,904.001)">
            <circle cx="1960.11" cy="1320.75" r="156.37" style="fill:rgb(21,100,47);"/>
            <g transform="matrix(0.649093,0,0,0.649093,672.09,447.925)">
                <circle cx="1960.11" cy="1320.75" r="156.37" style="fill:rgb(229,82,0);"/>
            </g>
        </g>
        <g transform="matrix(0.608305,0.793703,-0.793703,0.608305,2615.77,628.485)">
            <circle cx="1960.11" cy="1320.75" r="156.37" style="fill:rgb(21,100,47);"/>
            <g transform="matrix(0.649093,0,0,0.649093,672.09,447.925)">
                <circle cx="1960.11" cy="1320.75" r="156.37" style="fill:rgb(229,82,0);"/>
            </g>
        </g>
        <g transform="matrix(0.608305,0.793703,-0.793703,0.608305,2241.09,1062.9)">
            <circle cx="1960.11" cy="1320.75" r="156.37" style="fill:rgb(21,100,47);"/>
            <g transform="matrix(0.649093,0,0,0.649093,672.09,447.925)">
                <circle cx="1960.11" cy="1320.75" r="156.37" style="fill:rgb(229,82,0);"/>
            </g>
        </g>
        <g transform="matrix(0.104468,0.994528,-0.994528,0.104468,3037.49,2032.29)">
            <circle cx="1960.11" cy="1320.75" r="156.37" style="fill:rgb(21,100,47);"/>
            <g transform="matrix(0.649093,0,0,0.649093,672.09,447.925)">
                <circle cx="1960.11" cy="1320.75" r="156.37" style="fill:rgb(229,82,0);"/>
            </g>
        </g>
        <g transform="matrix(0.104468,0.994528,-0.994528,0.104468,2725.04,2420.26)">
            <circle cx="1960.11" cy="1320.75" r="156.37" style="fill:rgb(21,100,47);"/>
            <g transform="matrix(0.649093,0,0,0.649093,672.09,447.925)">
                <circle cx="1960.11" cy="1320.75" r="156.37" style="fill:rgb(229,82,0);"/>
            </g>
        </g>
        <g transform="matrix(0.104468,0.994528,-0.994528,0.104468,2336.3,2080.07)">
            <circle cx="1960.11" cy="1320.75" r="156.37" style="fill:rgb(21,100,47);"/>
            <g transform="matrix(0.649093,0,0,0.649093,672.09,447.925)">
                <circle cx="1960.11" cy="1320.75" r="156.37" style="fill:rgb(229,82,0);"/>
            </g>
        </g>
        <g transform="matrix(0.104468,0.994528,-0.994528,0.104468,2015.71,2544.83)">
            <circle cx="1960.11" cy="1320.75" r="156.37" style="fill:rgb(21,100,47);"/>
            <g transform="matrix(0.649093,0,0,0.649093,672.09,447.925)">
                <circle cx="1960.11" cy="1320.75" r="156.37" style="fill:rgb(229,82,0);"/>
            </g>
        </g>
    </g>
</svg>
