<?xml version="1.0" encoding="UTF-8" standalone="no"?>
<!DOCTYPE svg PUBLIC "-//W3C//DTD SVG 1.1//EN" "http://www.w3.org/Graphics/SVG/1.1/DTD/svg11.dtd">
<svg width="100%" height="100%" viewBox="0 0 4320 4320" version="1.1" xmlns="http://www.w3.org/2000/svg" xmlns:xlink="http://www.w3.org/1999/xlink" xml:space="preserve" xmlns:serif="http://www.serif.com/" style="fill-rule:evenodd;clip-rule:evenodd;stroke-linejoin:round;stroke-miterlimit:2;">
    <g transform="matrix(1,0,0,1,-302.286,158.432)">
        <g transform="matrix(-0.632789,-0.562632,0.821894,-0.92438,1675.72,5318.61)">
            <path d="M1988.31,345.121L3490.73,3349.96L485.889,3349.96L1988.31,345.121Z" style="fill:rgb(255,209,0);"/>
        </g>
        <g transform="matrix(0.830544,0,0,0.830544,1150.02,708.225)">
            <circle cx="2499.6" cy="1386.62" r="303.688" style="fill:rgb(255,54,0);"/>
        </g>
        <g transform="matrix(0.761973,0,0,0.761973,542.769,173.171)">
            <circle cx="2499.6" cy="1386.62" r="303.688" style="fill:rgb(255,54,0);"/>
        </g>
        <g transform="matrix(0.761973,0,0,0.761973,-15.4614,1503.25)">
            <circle cx="2499.6" cy="1386.62" r="303.688" style="fill:rgb(255,54,0);"/>
        </g>
        <g transform="matrix(0.457328,-0.60947,0.60947,0.457328,542.7,3017.19)">
            <circle cx="2499.6" cy="1386.62" r="303.688" style="fill:rgb(255,54,0);"/>
        </g>
        <g transform="matrix(0.618091,0,0,0.618091,-147.389,2247.84)">
            <circle cx="2499.6" cy="1386.62" r="303.688" style="fill:rgb(255,54,0);"/>
        </g>
        <g transform="matrix(2.68679,2.46042,-0.168339,0.183827,-3405.05,-5178.29)">
            <path d="M2863,450.728C2863,349.134 2857.35,266.653 2850.4,266.653L2139.29,266.653C2132.34,266.653 2126.69,349.134 2126.69,450.728L2126.69,818.88C2126.69,920.474 2132.34,1002.96 2139.29,1002.96L2850.4,1002.96C2857.35,1002.96 2863,920.474 2863,818.88L2863,450.728Z" style="fill:rgb(255,209,139);"/>
        </g>
    </g>
</svg>
